/* XPM */
static char * bitcoin16_regtest_xpm[] = {
"16 16 119 2",
"  	c None",
". 	c #FFDED5",
"+ 	c #FFA37C",
"@ 	c #FF8551",
"# 	c #FF8550",
"$ 	c #FFE0D3",
"% 	c #FFE2D6",
"& 	c #FF6C30",
"* 	c #FF4900",
"= 	c #FF3700",
"- 	c #FF4A00",
"; 	c #FF4D00",
"> 	c #FF3C00",
", 	c #FF7023",
"' 	c #FFDDD3",
") 	c #FFC6A7",
"! 	c #FF5309",
"~ 	c #FF5007",
"{ 	c #FF4400",
"] 	c #FF4200",
"^ 	c #FF3B00",
"/ 	c #FF5800",
"( 	c #FFC3A0",
"_ 	c #FFE4D6",
": 	c #FF5700",
"< 	c #FF3600",
"[ 	c #FF5500",
"} 	c #FF4C00",
"| 	c #FC5800",
"1 	c #FC4D00",
"2 	c #FFE2CC",
"3 	c #FF6F25",
"4 	c #FF5104",
"5 	c #FF4500",
"6 	c #FF5C00",
"7 	c #FFA267",
"8 	c #E19475",
"9 	c #CD4C0D",
"0 	c #F44800",
"a 	c #F64B00",
"b 	c #FF6F17",
"c 	c #FFDED1",
"d 	c #FF4700",
"e 	c #FF5B00",
"f 	c #C5470F",
"g 	c #C83800",
"h 	c #F63D00",
"i 	c #FF4E00",
"j 	c #FFE1C4",
"k 	c #FFA671",
"l 	c #FF3E00",
"m 	c #FF520C",
"n 	c #FFA46C",
"o 	c #D99377",
"p 	c #C03F07",
"q 	c #C82E00",
"r 	c #FFA367",
"s 	c #FF8943",
"t 	c #A12A00",
"u 	c #C73400",
"v 	c #F14D00",
"w 	c #FF883B",
"x 	c #FF8741",
"y 	c #B23000",
"z 	c #B32E00",
"A 	c #C93900",
"B 	c #FC883B",
"C 	c #FFA36B",
"D 	c #FF4300",
"E 	c #FF5400",
"F 	c #FF9D77",
"G 	c #FDA263",
"H 	c #C73F07",
"I 	c #9C2200",
"J 	c #C22500",
"K 	c #FBA364",
"L 	c #FFDEC9",
"M 	c #FF5000",
"N 	c #FF5A09",
"O 	c #F55B00",
"P 	c #C13500",
"Q 	c #9A1800",
"R 	c #C93A00",
"S 	c #FDDBC3",
"T 	c #FF7018",
"U 	c #FF5600",
"V 	c #FF4B00",
"W 	c #FF5B06",
"X 	c #FFA06F",
"Y 	c #FFA068",
"Z 	c #FE5C00",
"` 	c #CB3800",
" .	c #AE2C00",
"..	c #AE370D",
"+.	c #D6622A",
"@.	c #FFE0CF",
"#.	c #FF4800",
"$.	c #F74B00",
"%.	c #CB460A",
"&.	c #FBDCC9",
"*.	c #FEC39C",
"=.	c #F75900",
"-.	c #F54600",
";.	c #B13A0C",
">.	c #A93C16",
",.	c #ECBBA5",
"'.	c #F3DBD0",
").	c #F66D16",
"!.	c #F64E00",
"~.	c #CB3C00",
"{.	c #AC3104",
"].	c #B55637",
"^.	c #F5D9CF",
"/.	c #F4D9CE",
"(.	c #E39673",
"_.	c #D9774D",
":.	c #CA7353",
"<.	c #CF9078",
"[.	c #F2D5CE",
"          . + @ # + $           ",
"      % & * = - ; > ; , '       ",
"    ) ! ~ = { * - ] ^ / / (     ",
"  _ : < { - [ - } | 1 * ^ : 2   ",
"  3 4 { 5 6 7     8 9 0 a : b   ",
"c ; < d e             f g h i j ",
"k ^ l m n             o p q h r ",
"s ; d *                 t u v w ",
"x ; * d                 y z A B ",
"C > D E F             G H I J K ",
"L M > * N             O P Q R S ",
"  T U * V W X     Y Z `  ...+.  ",
"  @.U ^ #.V [ - - / $.u Q %.&.  ",
"    *.=.: ^ { #.a -.J ;.>.,.    ",
"      '.).!.h !.~.J {.].^.      ",
"          /.(._.:.<.[.          "};
