/* XPM */
static char * bitcoin32_xpm[] = {
"32 32 497 2",
"  	c None",
". 	c #D7E9EE",
"+ 	c #CBE3EA",
"@ 	c #C3DFE6",
"# 	c #C4E0E7",
"$ 	c #CCE5EC",
"% 	c #D7EBF0",
"& 	c #E7F0F4",
"* 	c #C4DFE7",
"= 	c #96C6D3",
"- 	c #78B6C7",
"; 	c #72B5C7",
"> 	c #68B5C7",
", 	c #5AB0C4",
"' 	c #69B7C9",
") 	c #76BDCE",
"! 	c #7DC0D0",
"~ 	c #98CDDA",
"{ 	c #C4E3EA",
"] 	c #E7F4F8",
"^ 	c #BDD9E2",
"/ 	c #85BDCC",
"( 	c #68AEC0",
"_ 	c #64ADC1",
": 	c #5CB0C4",
"< 	c #53ACC1",
"[ 	c #51ABC1",
"} 	c #50ABC0",
"| 	c #4DA5BB",
"1 	c #4897B1",
"2 	c #4690AB",
"3 	c #4F93AD",
"4 	c #5C9CB4",
"5 	c #62A2B8",
"6 	c #83BACB",
"7 	c #BDDFE7",
"8 	c #DBEBF0",
"9 	c #92C1D1",
"0 	c #5DA8BC",
"a 	c #479CB3",
"b 	c #4FA4B9",
"c 	c #45A5BC",
"d 	c #44A5BC",
"e 	c #4A9BB4",
"f 	c #39809E",
"g 	c #387E9D",
"h 	c #3F83A0",
"i 	c #307999",
"j 	c #317999",
"k 	c #4184A1",
"l 	c #3A7F9E",
"m 	c #528FAA",
"n 	c #8EB8C9",
"o 	c #D8EAEF",
"p 	c #C9E0E8",
"q 	c #79B2C6",
"r 	c #53A2B8",
"s 	c #469BB2",
"t 	c #58A9BD",
"u 	c #50AAC0",
"v 	c #55ABC1",
"w 	c #498DA9",
"x 	c #397E9D",
"y 	c #4583A0",
"z 	c #417E9D",
"A 	c #397896",
"B 	c #3A7998",
"C 	c #4886A2",
"D 	c #4788A4",
"E 	c #73A4BA",
"F 	c #C3D9E2",
"G 	c #C9E0E7",
"H 	c #72AEC3",
"I 	c #64ABBF",
"J 	c #4B9EB4",
"K 	c #489EB4",
"L 	c #4BA3BA",
"M 	c #347C9B",
"N 	c #317A99",
"O 	c #45829F",
"P 	c #427997",
"Q 	c #286688",
"R 	c #276587",
"S 	c #2B6889",
"T 	c #336D8D",
"U 	c #286687",
"V 	c #326D8D",
"W 	c #377291",
"X 	c #5790AA",
"Y 	c #6B9FB6",
"Z 	c #C4D9E2",
"` 	c #D9E7ED",
" .	c #61A7BD",
"..	c #3F97AF",
"+.	c #3E97AF",
"@.	c #4DA8BE",
"#.	c #54ABC0",
"$.	c #4084A1",
"%.	c #3D819F",
"&.	c #4585A2",
"*.	c #367090",
"=.	c #356F8E",
"-.	c #3D7393",
";.	c #336B8B",
">.	c #366D8D",
",.	c #3A7292",
"'.	c #5387A2",
").	c #72A3B9",
"!.	c #D4E3EA",
"~.	c #91BECF",
"{.	c #4F9AB3",
"].	c #4A9CB3",
"^.	c #58A8BD",
"/.	c #51ABC0",
"(.	c #3C84A1",
"_.	c #3E7E9B",
":.	c #2F6B8B",
"<.	c #3A7392",
"[.	c #52819C",
"}.	c #507A98",
"|.	c #356586",
"1.	c #295C7F",
"2.	c #336485",
"3.	c #21567A",
"4.	c #2B5E80",
"5.	c #22577B",
"6.	c #316485",
"7.	c #417594",
"8.	c #356F8F",
"9.	c #3F7694",
"0.	c #8AB1C3",
"a.	c #B9D2DD",
"b.	c #59A0B8",
"c.	c #4192AD",
"d.	c #489CB3",
"e.	c #50A8BE",
"f.	c #499BB4",
"g.	c #508BA6",
"h.	c #5686A1",
"i.	c #7B9FB4",
"j.	c #8CA7BA",
"k.	c #9FB5C3",
"l.	c #9FB4C0",
"m.	c #8AA2AF",
"n.	c #7693A2",
"o.	c #4E7488",
"p.	c #446D86",
"q.	c #2F5F7F",
"r.	c #306183",
"s.	c #2D6082",
"t.	c #316B8B",
"u.	c #306B8C",
"v.	c #4A7E9A",
"w.	c #B3CDD9",
"x.	c #E7EEF2",
"y.	c #7EAFC3",
"z.	c #4292AE",
"A.	c #539EB6",
"B.	c #45A6BC",
"C.	c #52ABC1",
"D.	c #4084A2",
"E.	c #4888A4",
"F.	c #6F98AF",
"G.	c #ADC2D0",
"H.	c #A9B9C0",
"I.	c #678592",
"J.	c #375F71",
"K.	c #2D576A",
"L.	c #305E7A",
"M.	c #22577A",
"N.	c #417493",
"O.	c #316C8C",
"P.	c #759DB2",
"Q.	c #E0EBF0",
"R.	c #BFD5DF",
"S.	c #60A0B7",
"T.	c #4996B1",
"U.	c #4898B1",
"V.	c #51A3B8",
"W.	c #4DA9BF",
"X.	c #4989A5",
"Y.	c #83A8BC",
"Z.	c #BECFD9",
"`.	c #BBC7CA",
" +	c #788F97",
".+	c #375E70",
"++	c #2B5568",
"@+	c #285468",
"#+	c #356585",
"$+	c #2F6182",
"%+	c #376D8D",
"&+	c #5586A0",
"*+	c #B9CED8",
"=+	c #8CB4C6",
"-+	c #5C9FB7",
";+	c #3A8DAA",
">+	c #4899B2",
",+	c #4FA3B8",
"'+	c #5BA4BB",
")+	c #75A5BA",
"!+	c #C0D1DB",
"~+	c #BBC7CD",
"{+	c #647D86",
"]+	c #406373",
"^+	c #1D4A5E",
"/+	c #2F586B",
"(+	c #2D5E7D",
"_+	c #4F819D",
":+	c #85A8BB",
"<+	c #6CA0B7",
"[+	c #5099B2",
"}+	c #398DAA",
"|+	c #4F9DB5",
"1+	c #4199B0",
"2+	c #4CA1B7",
"3+	c #B1CBD6",
"4+	c #47656F",
"5+	c #2E5464",
"6+	c #214D61",
"7+	c #376686",
"8+	c #3D6C8C",
"9+	c #6692AA",
"0+	c #D4E2E9",
"a+	c #669CB4",
"b+	c #4590AB",
"c+	c #519EB6",
"d+	c #54A5BA",
"e+	c #4BA8BE",
"f+	c #84B5C7",
"g+	c #718A94",
"h+	c #1F434F",
"i+	c #355C6C",
"j+	c #375F73",
"k+	c #326384",
"l+	c #5E8AA3",
"m+	c #CCDBE3",
"n+	c #C6D9E1",
"o+	c #5994AD",
"p+	c #428BA7",
"q+	c #4795B0",
"r+	c #4293AE",
"s+	c #55ADC2",
"t+	c #96C0CF",
"u+	c #88A0AB",
"v+	c #2B4D59",
"w+	c #264956",
"x+	c #1E4B5F",
"y+	c #285366",
"z+	c #305E79",
"A+	c #4E7A96",
"B+	c #C1D2DD",
"C+	c #BDD1DB",
"D+	c #3F84A2",
"E+	c #4191AD",
"F+	c #55A3B9",
"G+	c #6CB8CA",
"H+	c #AACFDB",
"I+	c #9CB1BB",
"J+	c #496A76",
"K+	c #173C49",
"L+	c #355A69",
"M+	c #265165",
"N+	c #2F6183",
"O+	c #3C6A8A",
"P+	c #B8CCD8",
"Q+	c #BDD0DA",
"R+	c #4090AC",
"S+	c #529FB7",
"T+	c #6AB3C6",
"U+	c #ACD4DF",
"V+	c #9CB2BE",
"W+	c #4B6E7E",
"X+	c #335460",
"Y+	c #255164",
"Z+	c #2F5F7E",
"`+	c #3C6B8A",
" @	c #B7CBD7",
".@	c #C4D5DF",
"+@	c #5891AB",
"@@	c #3E82A0",
"#@	c #428AA7",
"$@	c #3A8EAA",
"%@	c #4A9DB4",
"&@	c #50A1B6",
"*@	c #9DCFDB",
"=@	c #89A4B4",
"-@	c #315A6C",
";@	c #264855",
">@	c #183D4A",
",@	c #275264",
"'@	c #2E5C76",
")@	c #4E7895",
"!@	c #C0D0DB",
"~@	c #D1DEE6",
"{@	c #6191AA",
"]@	c #4E98B2",
"^@	c #509CB5",
"/@	c #459BB2",
"(@	c #8AC2D1",
"_@	c #7595A8",
":@	c #245063",
"<@	c #315360",
"[@	c #345A6A",
"}@	c #2F5B72",
"|@	c #5B829D",
"1@	c #C9D7DF",
"2@	c #4689A5",
"3@	c #3C8FAB",
"4@	c #4694B0",
"5@	c #4B99B2",
"6@	c #67ADC0",
"7@	c #B8DBE4",
"8@	c #ACC2CF",
"9@	c #4E768E",
"0@	c #2F596B",
"a@	c #274B59",
"b@	c #1B3F4C",
"c@	c #325766",
"d@	c #3A6276",
"e@	c #6287A1",
"f@	c #86A9BC",
"g@	c #5085A0",
"h@	c #3D829F",
"i@	c #3D83A1",
"j@	c #5AA2B9",
"k@	c #7EB9C9",
"l@	c #C5E2E8",
"m@	c #C0D2DE",
"n@	c #6A8EA6",
"o@	c #426B83",
"p@	c #2A4E5C",
"q@	c #244753",
"r@	c #284F5E",
"s@	c #486E82",
"t@	c #819FB4",
"u@	c #BBCDD8",
"v@	c #3C7897",
"w@	c #4488A5",
"x@	c #4190AC",
"y@	c #4594AF",
"z@	c #509BB4",
"A@	c #8DC0CF",
"B@	c #C6E2E7",
"C@	c #BED4DE",
"D@	c #80A2B7",
"E@	c #3B6A89",
"F@	c #2B576B",
"G@	c #285265",
"H@	c #2D4F5C",
"I@	c #294F5F",
"J@	c #30596C",
"K@	c #4F7488",
"L@	c #B6C6D3",
"M@	c #E1E9ED",
"N@	c #759CB2",
"O@	c #457E9C",
"P@	c #317A9A",
"Q@	c #428AA6",
"R@	c #4694AF",
"S@	c #509AB4",
"T@	c #7BB3C6",
"U@	c #B5D5DF",
"V@	c #B0CAD6",
"W@	c #6E98AE",
"X@	c #3B6B8A",
"Y@	c #306182",
"Z@	c #2E576A",
"`@	c #385E6D",
" #	c #7190A3",
".#	c #DEE5EB",
"+#	c #B1C4D1",
"@#	c #336F8F",
"##	c #3A7E9C",
"$#	c #5597B1",
"%#	c #85B6C8",
"&#	c #96C0D0",
"*#	c #A7C9D6",
"=#	c #A6C7D4",
"-#	c #93B9C9",
";#	c #7DA6BA",
">#	c #5485A0",
",#	c #467594",
"'#	c #2E5B73",
")#	c #2B5465",
"!#	c #234652",
"~#	c #275265",
"{#	c #436979",
"]#	c #ADC1CD",
"^#	c #84A2B6",
"/#	c #366F8F",
"(#	c #457D9B",
"_#	c #3C7E9C",
":#	c #397F9E",
"<#	c #377E9C",
"[#	c #4285A2",
"}#	c #5A94AD",
"|#	c #568DA7",
"1#	c #2E6A8B",
"2#	c #356889",
"3#	c #2B5C7D",
"4#	c #2C5669",
"5#	c #365865",
"6#	c #284B58",
"7#	c #396072",
"8#	c #839CA8",
"9#	c #D2DDE3",
"0#	c #698DA6",
"a#	c #51839E",
"b#	c #3C7594",
"c#	c #3A7594",
"d#	c #377394",
"e#	c #3F7897",
"f#	c #356E8E",
"g#	c #3A6A8B",
"h#	c #2F6083",
"i#	c #325C6F",
"j#	c #285264",
"k#	c #4B6D7B",
"l#	c #6A8795",
"m#	c #CEDAE0",
"n#	c #BFCFDA",
"o#	c #6086A0",
"p#	c #4F7C99",
"q#	c #356D8D",
"r#	c #407695",
"s#	c #3E708F",
"t#	c #25597C",
"u#	c #2A566B",
"v#	c #234855",
"w#	c #274955",
"x#	c #496772",
"y#	c #62818F",
"z#	c #BDCAD0",
"A#	c #BECED7",
"B#	c #698DA5",
"C#	c #3A6989",
"D#	c #3E6F8E",
"E#	c #326788",
"F#	c #326889",
"G#	c #3A6D8E",
"H#	c #3C6D8E",
"I#	c #2C5F81",
"J#	c #2C5E80",
"K#	c #396787",
"L#	c #355E71",
"M#	c #2B5668",
"N#	c #2C5668",
"O#	c #365966",
"P#	c #224551",
"Q#	c #33545F",
"R#	c #6A8794",
"S#	c #BCC9CF",
"T#	c #D1DBE0",
"U#	c #829FB2",
"V#	c #45718F",
"W#	c #316284",
"X#	c #295C7E",
"Y#	c #2F5C74",
"Z#	c #1E4B5E",
"`#	c #2C505F",
" $	c #224652",
".$	c #3E5D68",
"+$	c #8199A3",
"@$	c #CED8DC",
"#$	c #ADBEC5",
"$$	c #708EA0",
"%$	c #4F778F",
"&$	c #4A738E",
"*$	c #3C6987",
"=$	c #315F7C",
"-$	c #2C576C",
";$	c #2E586A",
">$	c #395F70",
",$	c #43626E",
"'$	c #496670",
")$	c #6C838C",
"!$	c #ABBBC2",
"~$	c #E1E7E9",
"{$	c #E0E5E9",
"]$	c #B4C3C9",
"^$	c #7F99A4",
"/$	c #5F7F8D",
"($	c #587988",
"_$	c #496D7E",
":$	c #386071",
"<$	c #496C7B",
"[$	c #54727D",
"}$	c #5B757E",
"|$	c #7B9098",
"1$	c #B1BFC3",
"2$	c #DCE3E7",
"3$	c #C8D3D7",
"4$	c #BDC9CE",
"5$	c #B2BFC4",
"6$	c #B2BEC2",
"7$	c #BBC6CA",
"8$	c #C6D0D3",
"                          . + @ # $ %                           ",
"                  & * = - ; > , , ' ) ! ~ { ]                   ",
"                ^ / ( _ : < [ } | 1 2 3 4 5 6 7                 ",
"            8 9 0 a b c d d e f g h i i j k l m n o             ",
"          p q r s t } u v w l i i x y z A B C g D E F           ",
"        G H I J K c d L M i N O P Q R S T R U V W X Y Z         ",
"      ` q  ...+.@.c #.$.%.&.*.R R =.-.;.>.,.U V R U '.).!.      ",
"      ~.{.].+.^./.c (.i _.:.<.[.}.|.1.2.3.4.5.6.7.R 8.9.0.      ",
"    a.b.c.a d.e.d f.%.g.h.i.j.k.l.m.n.o.p.q.r.3.r.s.t.u.v.w.    ",
"  x.y.z.A.....B.C.D.E.F.G.            H.I.J.K.L.5.5.M.N.O.P.Q.  ",
"  R.S.T.U.+.V.W.| X.Y.Z.                `. +.+++@+#+3.$+%+&+*+  ",
"  =+-+;+>+d.,+d '+)+!+                    ~+{+]+^+/+(+$+M._+:+  ",
"  <+[+}+|+1+2+< 5 3+                        H.4+5+++6+7+3.8+9+  ",
"0+a+b+}+c++.d+e+f+                            g+h+i+^+j+3.k+l+m+",
"n+o+p+q+r+..J s+t+                            u+v+w+x+y+z+r.A+B+",
"C+X.D+E+}+F++.G+H+                            I+J+K+L+^+M+N+O+P+",
"Q+X.%.R+}+S++.T+U+                            V+W+K+X+^+Y+Z+`+ @",
".@+@@@#@z.$@%@&@*@                            =@-@;@>@,@K.'@)@!@",
"~@{@h i ]@}+^@/@(@                            _@:@<@K+[@^+}@|@1@",
"  9+X.i 2@3@4@5@6@7@                        8@9@0@a@b@c@^+d@e@  ",
"  f@g@j h@i@T.}+j@k@l@                    m@n@o@^+p@q@r@x+s@t@  ",
"  u@&+v@%.i w@x@y@z@A@B@                C@D@E@F@G@H@K+I@J@K@L@  ",
"  M@N@O.O@j N P@Q@R@S@T@U@            V@W@X@Y@Z@x+>@>@`@y+ #.#  ",
"    +#v.u.@###@@i @@D+$#S.%#&#*#=#-#;#>#,#N+'#^+)#!#!#~#{#]#    ",
"      ^#9./#R (#_#N :#i k <#[#}#|#,.1#2#3.3#x+4#5#K+6#7#8#      ",
"      9#0#a#U R V Q b#c#d#e#8.R R f#g#h#k+i#x+j#K+>@k#l#m#      ",
"        n#o#p#q#V U R T S R Q r#s#5.3.t#u#^+x+v#w#x#y#z#        ",
"          A#B#C#4.D#E#F#G#H#I#3.3.J#K#L#M#N#O#P#Q#R#S#          ",
"            T#U#V#4.2.M.3.3.W#1.X#Y#^+^+Z#`# $.$+$@$            ",
"                #$$$%$&$*$=$'@-$M#4#;$>$,$'$)$!$~$              ",
"                  {$]$^$/$($_$:$7#<$[$}$|$1$2$                  ",
"                          3$4$5$6$7$8$                          "};
