/* XPM */
static char * bitcoin16_xpm[] = {
"16 16 149 2",
"  	c None",
". 	c #E0EEF1",
"+ 	c #A6CFDA",
"@ 	c #8AC2D1",
"# 	c #8BC6D5",
"$ 	c #A8D5E0",
"% 	c #E2F1F5",
"& 	c #E2EFF2",
"* 	c #72B3C4",
"= 	c #52A4B9",
"- 	c #44A5BC",
"; 	c #53A9BF",
"> 	c #4487A3",
", 	c #307999",
"' 	c #4486A2",
") 	c #6AA1B7",
"! 	c #E0F0F3",
"~ 	c #C5DEE7",
"{ 	c #59A5BA",
"] 	c #58A8BD",
"^ 	c #3A809E",
"/ 	c #3E82A0",
"( 	c #3A7897",
"_ 	c #306C8C",
": 	c #276587",
"< 	c #457C9B",
"[ 	c #4D8BA7",
"} 	c #BFD6E0",
"| 	c #E2ECF0",
"1 	c #559DB6",
"2 	c #3E97AF",
"3 	c #51ABC0",
"4 	c #4186A3",
"5 	c #4986A2",
"6 	c #387190",
"7 	c #366B8B",
"8 	c #3F6E8E",
"9 	c #336587",
"0 	c #346B8B",
"a 	c #467B98",
"b 	c #DDE9EF",
"c 	c #6DAABF",
"d 	c #56A3B9",
"e 	c #4DA2B8",
"f 	c #51A9BE",
"g 	c #518CA7",
"h 	c #96B2C3",
"i 	c #91A7B0",
"j 	c #43687A",
"k 	c #326382",
"l 	c #306183",
"m 	c #427594",
"n 	c #608EA7",
"o 	c #DEEAEE",
"p 	c #4C98B2",
"q 	c #53ACC1",
"r 	c #5391AB",
"s 	c #416575",
"t 	c #30596C",
"u 	c #21567A",
"v 	c #3A708F",
"w 	c #D9E4EC",
"x 	c #9FC0CF",
"y 	c #398DAA",
"z 	c #469BB2",
"A 	c #5DB0C4",
"B 	c #9CBECE",
"C 	c #90A4AC",
"D 	c #395E6E",
"E 	c #265266",
"F 	c #97B4C5",
"G 	c #80ABBF",
"H 	c #4A96B1",
"I 	c #4999B2",
"J 	c #51A5BB",
"K 	c #294B57",
"L 	c #2C5669",
"M 	c #346383",
"N 	c #789CB2",
"O 	c #7DA6BA",
"P 	c #4386A3",
"Q 	c #4694B0",
"R 	c #4E9FB5",
"S 	c #2C5160",
"T 	c #294F5F",
"U 	c #315A6D",
"V 	c #7798AE",
"W 	c #99B6C6",
"X 	c #4191AD",
"Y 	c #55A0B8",
"Z 	c #A3D1DC",
"` 	c #93ADBF",
" .	c #3A6171",
"..	c #214450",
"+.	c #1D4A5E",
"@.	c #94ADBF",
"#.	c #DBE6EC",
"$.	c #3E7897",
"%.	c #4997B1",
"&.	c #5AA1B8",
"*.	c #45718E",
"=.	c #2F5768",
"-.	c #173C49",
";.	c #335C6E",
">.	c #D5DFE6",
",.	c #608DA6",
"'.	c #457D9B",
").	c #4185A2",
"!.	c #599FB7",
"~.	c #9FC8D6",
"{.	c #98BACA",
"].	c #467492",
"^.	c #305A6D",
"/.	c #284D5C",
"(.	c #365864",
"_.	c #5A7B8B",
":.	c #DCE5EA",
"<.	c #457A97",
"[.	c #387594",
"}.	c #3F82A0",
"|.	c #4A89A5",
"1.	c #3C7A98",
"2.	c #407090",
"3.	c #326384",
"4.	c #3F6576",
"5.	c #D8E1E6",
"6.	c #BACBD6",
"7.	c #416E8D",
"8.	c #427695",
"9.	c #306B8C",
"0.	c #336989",
"a.	c #2A5C7F",
"b.	c #375966",
"c.	c #3B5A65",
"d.	c #B8C6CC",
"e.	c #D9E0E3",
"f.	c #5B829B",
"g.	c #366686",
"h.	c #346485",
"i.	c #325B6F",
"j.	c #2F525F",
"k.	c #56717A",
"l.	c #D8E0E3",
"m.	c #D7DFE2",
"n.	c #91A7B1",
"o.	c #728E9A",
"p.	c #718A93",
"q.	c #8EA0A7",
"r.	c #D5DDDF",
"          . + @ # $ %           ",
"      & * = - ; > , ' ) !       ",
"    ~ { ] - ^ / ( _ : < [ }     ",
"  | 1 2 3 4 5 6 7 8 9 0 : a b   ",
"  c d e f g h     i j k l m n   ",
"o p 2 q r             s t u v w ",
"x y z A B             C D E u F ",
"G H I J                 K L M N ",
"O P Q R                 S T U V ",
"W , X Y Z             `  ...+.@.",
"#.$., %.&.            *.=.-.;.>.",
"  ,.'./ ).!.~.    {.].^./.(._.  ",
"  :.<.: [.}.|.1.6 2.3.L -.4.5.  ",
"    6.7.8.: 9.0.l a.+.b.c.d.    ",
"      e.f.g.u h.i.+.j.k.l.      ",
"          m.n.o.p.q.r.          "};
