<?xml version="1.0" encoding="UTF-8" standalone="no"?>
<svg
   xmlns:dc="http://purl.org/dc/elements/1.1/"
   xmlns:cc="http://creativecommons.org/ns#"
   xmlns:rdf="http://www.w3.org/1999/02/22-rdf-syntax-ns#"
   xmlns:svg="http://www.w3.org/2000/svg"
   xmlns="http://www.w3.org/2000/svg"
   xmlns:sodipodi="http://sodipodi.sourceforge.net/DTD/sodipodi-0.dtd"
   xmlns:inkscape="http://www.inkscape.org/namespaces/inkscape"
   version="1.1"
   width="200"
   height="200"
   id="svg472"
   sodipodi:docname="qrcode.svg"
   inkscape:export-filename="/home/dev/go/src/github.com/obsr/sources/artworks/src/qt/res/icons/qrcode.png"
   inkscape:export-xdpi="30.719999"
   inkscape:export-ydpi="30.719999"
   inkscape:version="0.92.3 (2405546, 2018-03-11)">
  <metadata
     id="metadata478">
    <rdf:RDF>
      <cc:Work
         rdf:about="">
        <dc:format>image/svg+xml</dc:format>
        <dc:type
           rdf:resource="http://purl.org/dc/dcmitype/StillImage" />
      </cc:Work>
    </rdf:RDF>
  </metadata>
  <defs
     id="defs476" />
  <sodipodi:namedview
     pagecolor="#ffffff"
     bordercolor="#666666"
     borderopacity="1"
     objecttolerance="10"
     gridtolerance="10"
     guidetolerance="10"
     inkscape:pageopacity="0"
     inkscape:pageshadow="2"
     inkscape:window-width="1643"
     inkscape:window-height="688"
     id="namedview474"
     showgrid="false"
     inkscape:zoom="1.18"
     inkscape:cx="100"
     inkscape:cy="100"
     inkscape:window-x="67"
     inkscape:window-y="27"
     inkscape:window-maximized="0"
     inkscape:current-layer="svg472" />
  <rect
     shape-rendering="optimizeSpeed"
     x="0"
     y="0"
     width="200"
     height="200"
     fill="white"
     id="rect2" />
  <rect
     shape-rendering="optimizeSpeed"
     x="16"
     y="16"
     width="8"
     height="8"
     fill="black"
     id="rect4" />
  <rect
     shape-rendering="optimizeSpeed"
     x="24"
     y="16"
     width="8"
     height="8"
     fill="black"
     id="rect6" />
  <rect
     shape-rendering="optimizeSpeed"
     x="32"
     y="16"
     width="8"
     height="8"
     fill="black"
     id="rect8" />
  <rect
     shape-rendering="optimizeSpeed"
     x="40"
     y="16"
     width="8"
     height="8"
     fill="black"
     id="rect10" />
  <rect
     shape-rendering="optimizeSpeed"
     x="48"
     y="16"
     width="8"
     height="8"
     fill="black"
     id="rect12" />
  <rect
     shape-rendering="optimizeSpeed"
     x="56"
     y="16"
     width="8"
     height="8"
     fill="black"
     id="rect14" />
  <rect
     shape-rendering="optimizeSpeed"
     x="64"
     y="16"
     width="8"
     height="8"
     fill="black"
     id="rect16" />
  <rect
     shape-rendering="optimizeSpeed"
     x="96"
     y="16"
     width="8"
     height="8"
     fill="black"
     id="rect18" />
  <rect
     shape-rendering="optimizeSpeed"
     x="104"
     y="16"
     width="8"
     height="8"
     fill="black"
     id="rect20" />
  <rect
     shape-rendering="optimizeSpeed"
     x="128"
     y="16"
     width="8"
     height="8"
     fill="black"
     id="rect22" />
  <rect
     shape-rendering="optimizeSpeed"
     x="136"
     y="16"
     width="8"
     height="8"
     fill="black"
     id="rect24" />
  <rect
     shape-rendering="optimizeSpeed"
     x="144"
     y="16"
     width="8"
     height="8"
     fill="black"
     id="rect26" />
  <rect
     shape-rendering="optimizeSpeed"
     x="152"
     y="16"
     width="8"
     height="8"
     fill="black"
     id="rect28" />
  <rect
     shape-rendering="optimizeSpeed"
     x="160"
     y="16"
     width="8"
     height="8"
     fill="black"
     id="rect30" />
  <rect
     shape-rendering="optimizeSpeed"
     x="168"
     y="16"
     width="8"
     height="8"
     fill="black"
     id="rect32" />
  <rect
     shape-rendering="optimizeSpeed"
     x="176"
     y="16"
     width="8"
     height="8"
     fill="black"
     id="rect34" />
  <rect
     shape-rendering="optimizeSpeed"
     x="16"
     y="24"
     width="8"
     height="8"
     fill="black"
     id="rect36" />
  <rect
     shape-rendering="optimizeSpeed"
     x="64"
     y="24"
     width="8"
     height="8"
     fill="black"
     id="rect38" />
  <rect
     shape-rendering="optimizeSpeed"
     x="88"
     y="24"
     width="8"
     height="8"
     fill="black"
     id="rect40" />
  <rect
     shape-rendering="optimizeSpeed"
     x="96"
     y="24"
     width="8"
     height="8"
     fill="black"
     id="rect42" />
  <rect
     shape-rendering="optimizeSpeed"
     x="104"
     y="24"
     width="8"
     height="8"
     fill="black"
     id="rect44" />
  <rect
     shape-rendering="optimizeSpeed"
     x="112"
     y="24"
     width="8"
     height="8"
     fill="black"
     id="rect46" />
  <rect
     shape-rendering="optimizeSpeed"
     x="128"
     y="24"
     width="8"
     height="8"
     fill="black"
     id="rect48" />
  <rect
     shape-rendering="optimizeSpeed"
     x="176"
     y="24"
     width="8"
     height="8"
     fill="black"
     id="rect50" />
  <rect
     shape-rendering="optimizeSpeed"
     x="16"
     y="32"
     width="8"
     height="8"
     fill="black"
     id="rect52" />
  <rect
     shape-rendering="optimizeSpeed"
     x="32"
     y="32"
     width="8"
     height="8"
     fill="black"
     id="rect54" />
  <rect
     shape-rendering="optimizeSpeed"
     x="40"
     y="32"
     width="8"
     height="8"
     fill="black"
     id="rect56" />
  <rect
     shape-rendering="optimizeSpeed"
     x="48"
     y="32"
     width="8"
     height="8"
     fill="black"
     id="rect58" />
  <rect
     shape-rendering="optimizeSpeed"
     x="64"
     y="32"
     width="8"
     height="8"
     fill="black"
     id="rect60" />
  <rect
     shape-rendering="optimizeSpeed"
     x="88"
     y="32"
     width="8"
     height="8"
     fill="black"
     id="rect62" />
  <rect
     shape-rendering="optimizeSpeed"
     x="128"
     y="32"
     width="8"
     height="8"
     fill="black"
     id="rect64" />
  <rect
     shape-rendering="optimizeSpeed"
     x="144"
     y="32"
     width="8"
     height="8"
     fill="black"
     id="rect66" />
  <rect
     shape-rendering="optimizeSpeed"
     x="152"
     y="32"
     width="8"
     height="8"
     fill="black"
     id="rect68" />
  <rect
     shape-rendering="optimizeSpeed"
     x="160"
     y="32"
     width="8"
     height="8"
     fill="black"
     id="rect70" />
  <rect
     shape-rendering="optimizeSpeed"
     x="176"
     y="32"
     width="8"
     height="8"
     fill="black"
     id="rect72" />
  <rect
     shape-rendering="optimizeSpeed"
     x="16"
     y="40"
     width="8"
     height="8"
     fill="black"
     id="rect74" />
  <rect
     shape-rendering="optimizeSpeed"
     x="32"
     y="40"
     width="8"
     height="8"
     fill="black"
     id="rect76" />
  <rect
     shape-rendering="optimizeSpeed"
     x="40"
     y="40"
     width="8"
     height="8"
     fill="black"
     id="rect78" />
  <rect
     shape-rendering="optimizeSpeed"
     x="48"
     y="40"
     width="8"
     height="8"
     fill="black"
     id="rect80" />
  <rect
     shape-rendering="optimizeSpeed"
     x="64"
     y="40"
     width="8"
     height="8"
     fill="black"
     id="rect82" />
  <rect
     shape-rendering="optimizeSpeed"
     x="80"
     y="40"
     width="8"
     height="8"
     fill="black"
     id="rect84" />
  <rect
     shape-rendering="optimizeSpeed"
     x="112"
     y="40"
     width="8"
     height="8"
     fill="black"
     id="rect86" />
  <rect
     shape-rendering="optimizeSpeed"
     x="128"
     y="40"
     width="8"
     height="8"
     fill="black"
     id="rect88" />
  <rect
     shape-rendering="optimizeSpeed"
     x="144"
     y="40"
     width="8"
     height="8"
     fill="black"
     id="rect90" />
  <rect
     shape-rendering="optimizeSpeed"
     x="152"
     y="40"
     width="8"
     height="8"
     fill="black"
     id="rect92" />
  <rect
     shape-rendering="optimizeSpeed"
     x="160"
     y="40"
     width="8"
     height="8"
     fill="black"
     id="rect94" />
  <rect
     shape-rendering="optimizeSpeed"
     x="176"
     y="40"
     width="8"
     height="8"
     fill="black"
     id="rect96" />
  <rect
     shape-rendering="optimizeSpeed"
     x="16"
     y="48"
     width="8"
     height="8"
     fill="black"
     id="rect98" />
  <rect
     shape-rendering="optimizeSpeed"
     x="32"
     y="48"
     width="8"
     height="8"
     fill="black"
     id="rect100" />
  <rect
     shape-rendering="optimizeSpeed"
     x="40"
     y="48"
     width="8"
     height="8"
     fill="black"
     id="rect102" />
  <rect
     shape-rendering="optimizeSpeed"
     x="48"
     y="48"
     width="8"
     height="8"
     fill="black"
     id="rect104" />
  <rect
     shape-rendering="optimizeSpeed"
     x="64"
     y="48"
     width="8"
     height="8"
     fill="black"
     id="rect106" />
  <rect
     shape-rendering="optimizeSpeed"
     x="80"
     y="48"
     width="8"
     height="8"
     fill="black"
     id="rect108" />
  <rect
     shape-rendering="optimizeSpeed"
     x="96"
     y="48"
     width="8"
     height="8"
     fill="black"
     id="rect110" />
  <rect
     shape-rendering="optimizeSpeed"
     x="104"
     y="48"
     width="8"
     height="8"
     fill="black"
     id="rect112" />
  <rect
     shape-rendering="optimizeSpeed"
     x="128"
     y="48"
     width="8"
     height="8"
     fill="black"
     id="rect114" />
  <rect
     shape-rendering="optimizeSpeed"
     x="144"
     y="48"
     width="8"
     height="8"
     fill="black"
     id="rect116" />
  <rect
     shape-rendering="optimizeSpeed"
     x="152"
     y="48"
     width="8"
     height="8"
     fill="black"
     id="rect118" />
  <rect
     shape-rendering="optimizeSpeed"
     x="160"
     y="48"
     width="8"
     height="8"
     fill="black"
     id="rect120" />
  <rect
     shape-rendering="optimizeSpeed"
     x="176"
     y="48"
     width="8"
     height="8"
     fill="black"
     id="rect122" />
  <rect
     shape-rendering="optimizeSpeed"
     x="16"
     y="56"
     width="8"
     height="8"
     fill="black"
     id="rect124" />
  <rect
     shape-rendering="optimizeSpeed"
     x="64"
     y="56"
     width="8"
     height="8"
     fill="black"
     id="rect126" />
  <rect
     shape-rendering="optimizeSpeed"
     x="88"
     y="56"
     width="8"
     height="8"
     fill="black"
     id="rect128" />
  <rect
     shape-rendering="optimizeSpeed"
     x="96"
     y="56"
     width="8"
     height="8"
     fill="black"
     id="rect130" />
  <rect
     shape-rendering="optimizeSpeed"
     x="104"
     y="56"
     width="8"
     height="8"
     fill="black"
     id="rect132" />
  <rect
     shape-rendering="optimizeSpeed"
     x="112"
     y="56"
     width="8"
     height="8"
     fill="black"
     id="rect134" />
  <rect
     shape-rendering="optimizeSpeed"
     x="128"
     y="56"
     width="8"
     height="8"
     fill="black"
     id="rect136" />
  <rect
     shape-rendering="optimizeSpeed"
     x="176"
     y="56"
     width="8"
     height="8"
     fill="black"
     id="rect138" />
  <rect
     shape-rendering="optimizeSpeed"
     x="16"
     y="64"
     width="8"
     height="8"
     fill="black"
     id="rect140" />
  <rect
     shape-rendering="optimizeSpeed"
     x="24"
     y="64"
     width="8"
     height="8"
     fill="black"
     id="rect142" />
  <rect
     shape-rendering="optimizeSpeed"
     x="32"
     y="64"
     width="8"
     height="8"
     fill="black"
     id="rect144" />
  <rect
     shape-rendering="optimizeSpeed"
     x="40"
     y="64"
     width="8"
     height="8"
     fill="black"
     id="rect146" />
  <rect
     shape-rendering="optimizeSpeed"
     x="48"
     y="64"
     width="8"
     height="8"
     fill="black"
     id="rect148" />
  <rect
     shape-rendering="optimizeSpeed"
     x="56"
     y="64"
     width="8"
     height="8"
     fill="black"
     id="rect150" />
  <rect
     shape-rendering="optimizeSpeed"
     x="64"
     y="64"
     width="8"
     height="8"
     fill="black"
     id="rect152" />
  <rect
     shape-rendering="optimizeSpeed"
     x="80"
     y="64"
     width="8"
     height="8"
     fill="black"
     id="rect154" />
  <rect
     shape-rendering="optimizeSpeed"
     x="96"
     y="64"
     width="8"
     height="8"
     fill="black"
     id="rect156" />
  <rect
     shape-rendering="optimizeSpeed"
     x="112"
     y="64"
     width="8"
     height="8"
     fill="black"
     id="rect158" />
  <rect
     shape-rendering="optimizeSpeed"
     x="128"
     y="64"
     width="8"
     height="8"
     fill="black"
     id="rect160" />
  <rect
     shape-rendering="optimizeSpeed"
     x="136"
     y="64"
     width="8"
     height="8"
     fill="black"
     id="rect162" />
  <rect
     shape-rendering="optimizeSpeed"
     x="144"
     y="64"
     width="8"
     height="8"
     fill="black"
     id="rect164" />
  <rect
     shape-rendering="optimizeSpeed"
     x="152"
     y="64"
     width="8"
     height="8"
     fill="black"
     id="rect166" />
  <rect
     shape-rendering="optimizeSpeed"
     x="160"
     y="64"
     width="8"
     height="8"
     fill="black"
     id="rect168" />
  <rect
     shape-rendering="optimizeSpeed"
     x="168"
     y="64"
     width="8"
     height="8"
     fill="black"
     id="rect170" />
  <rect
     shape-rendering="optimizeSpeed"
     x="176"
     y="64"
     width="8"
     height="8"
     fill="black"
     id="rect172" />
  <rect
     shape-rendering="optimizeSpeed"
     x="104"
     y="72"
     width="8"
     height="8"
     fill="black"
     id="rect174" />
  <rect
     shape-rendering="optimizeSpeed"
     x="16"
     y="80"
     width="8"
     height="8"
     fill="black"
     id="rect176" />
  <rect
     shape-rendering="optimizeSpeed"
     x="24"
     y="80"
     width="8"
     height="8"
     fill="black"
     id="rect178" />
  <rect
     shape-rendering="optimizeSpeed"
     x="56"
     y="80"
     width="8"
     height="8"
     fill="black"
     id="rect180" />
  <rect
     shape-rendering="optimizeSpeed"
     x="64"
     y="80"
     width="8"
     height="8"
     fill="black"
     id="rect182" />
  <rect
     shape-rendering="optimizeSpeed"
     x="72"
     y="80"
     width="8"
     height="8"
     fill="black"
     id="rect184" />
  <rect
     shape-rendering="optimizeSpeed"
     x="88"
     y="80"
     width="8"
     height="8"
     fill="black"
     id="rect186" />
  <rect
     shape-rendering="optimizeSpeed"
     x="104"
     y="80"
     width="8"
     height="8"
     fill="black"
     id="rect188" />
  <rect
     shape-rendering="optimizeSpeed"
     x="144"
     y="80"
     width="8"
     height="8"
     fill="black"
     id="rect190" />
  <rect
     shape-rendering="optimizeSpeed"
     x="152"
     y="80"
     width="8"
     height="8"
     fill="black"
     id="rect192" />
  <rect
     shape-rendering="optimizeSpeed"
     x="16"
     y="88"
     width="8"
     height="8"
     fill="black"
     id="rect194" />
  <rect
     shape-rendering="optimizeSpeed"
     x="24"
     y="88"
     width="8"
     height="8"
     fill="black"
     id="rect196" />
  <rect
     shape-rendering="optimizeSpeed"
     x="48"
     y="88"
     width="8"
     height="8"
     fill="black"
     id="rect198" />
  <rect
     shape-rendering="optimizeSpeed"
     x="72"
     y="88"
     width="8"
     height="8"
     fill="black"
     id="rect200" />
  <rect
     shape-rendering="optimizeSpeed"
     x="88"
     y="88"
     width="8"
     height="8"
     fill="black"
     id="rect202" />
  <rect
     shape-rendering="optimizeSpeed"
     x="96"
     y="88"
     width="8"
     height="8"
     fill="black"
     id="rect204" />
  <rect
     shape-rendering="optimizeSpeed"
     x="120"
     y="88"
     width="8"
     height="8"
     fill="black"
     id="rect206" />
  <rect
     shape-rendering="optimizeSpeed"
     x="152"
     y="88"
     width="8"
     height="8"
     fill="black"
     id="rect208" />
  <rect
     shape-rendering="optimizeSpeed"
     x="160"
     y="88"
     width="8"
     height="8"
     fill="black"
     id="rect210" />
  <rect
     shape-rendering="optimizeSpeed"
     x="168"
     y="88"
     width="8"
     height="8"
     fill="black"
     id="rect212" />
  <rect
     shape-rendering="optimizeSpeed"
     x="32"
     y="96"
     width="8"
     height="8"
     fill="black"
     id="rect214" />
  <rect
     shape-rendering="optimizeSpeed"
     x="40"
     y="96"
     width="8"
     height="8"
     fill="black"
     id="rect216" />
  <rect
     shape-rendering="optimizeSpeed"
     x="64"
     y="96"
     width="8"
     height="8"
     fill="black"
     id="rect218" />
  <rect
     shape-rendering="optimizeSpeed"
     x="72"
     y="96"
     width="8"
     height="8"
     fill="black"
     id="rect220" />
  <rect
     shape-rendering="optimizeSpeed"
     x="80"
     y="96"
     width="8"
     height="8"
     fill="black"
     id="rect222" />
  <rect
     shape-rendering="optimizeSpeed"
     x="88"
     y="96"
     width="8"
     height="8"
     fill="black"
     id="rect224" />
  <rect
     shape-rendering="optimizeSpeed"
     x="104"
     y="96"
     width="8"
     height="8"
     fill="black"
     id="rect226" />
  <rect
     shape-rendering="optimizeSpeed"
     x="112"
     y="96"
     width="8"
     height="8"
     fill="black"
     id="rect228" />
  <rect
     shape-rendering="optimizeSpeed"
     x="120"
     y="96"
     width="8"
     height="8"
     fill="black"
     id="rect230" />
  <rect
     shape-rendering="optimizeSpeed"
     x="128"
     y="96"
     width="8"
     height="8"
     fill="black"
     id="rect232" />
  <rect
     shape-rendering="optimizeSpeed"
     x="136"
     y="96"
     width="8"
     height="8"
     fill="black"
     id="rect234" />
  <rect
     shape-rendering="optimizeSpeed"
     x="160"
     y="96"
     width="8"
     height="8"
     fill="black"
     id="rect236" />
  <rect
     shape-rendering="optimizeSpeed"
     x="168"
     y="96"
     width="8"
     height="8"
     fill="black"
     id="rect238" />
  <rect
     shape-rendering="optimizeSpeed"
     x="16"
     y="104"
     width="8"
     height="8"
     fill="black"
     id="rect240" />
  <rect
     shape-rendering="optimizeSpeed"
     x="24"
     y="104"
     width="8"
     height="8"
     fill="black"
     id="rect242" />
  <rect
     shape-rendering="optimizeSpeed"
     x="32"
     y="104"
     width="8"
     height="8"
     fill="black"
     id="rect244" />
  <rect
     shape-rendering="optimizeSpeed"
     x="40"
     y="104"
     width="8"
     height="8"
     fill="black"
     id="rect246" />
  <rect
     shape-rendering="optimizeSpeed"
     x="48"
     y="104"
     width="8"
     height="8"
     fill="black"
     id="rect248" />
  <rect
     shape-rendering="optimizeSpeed"
     x="72"
     y="104"
     width="8"
     height="8"
     fill="black"
     id="rect250" />
  <rect
     shape-rendering="optimizeSpeed"
     x="80"
     y="104"
     width="8"
     height="8"
     fill="black"
     id="rect252" />
  <rect
     shape-rendering="optimizeSpeed"
     x="88"
     y="104"
     width="8"
     height="8"
     fill="black"
     id="rect254" />
  <rect
     shape-rendering="optimizeSpeed"
     x="96"
     y="104"
     width="8"
     height="8"
     fill="black"
     id="rect256" />
  <rect
     shape-rendering="optimizeSpeed"
     x="120"
     y="104"
     width="8"
     height="8"
     fill="black"
     id="rect258" />
  <rect
     shape-rendering="optimizeSpeed"
     x="136"
     y="104"
     width="8"
     height="8"
     fill="black"
     id="rect260" />
  <rect
     shape-rendering="optimizeSpeed"
     x="144"
     y="104"
     width="8"
     height="8"
     fill="black"
     id="rect262" />
  <rect
     shape-rendering="optimizeSpeed"
     x="152"
     y="104"
     width="8"
     height="8"
     fill="black"
     id="rect264" />
  <rect
     shape-rendering="optimizeSpeed"
     x="160"
     y="104"
     width="8"
     height="8"
     fill="black"
     id="rect266" />
  <rect
     shape-rendering="optimizeSpeed"
     x="16"
     y="112"
     width="8"
     height="8"
     fill="black"
     id="rect268" />
  <rect
     shape-rendering="optimizeSpeed"
     x="24"
     y="112"
     width="8"
     height="8"
     fill="black"
     id="rect270" />
  <rect
     shape-rendering="optimizeSpeed"
     x="48"
     y="112"
     width="8"
     height="8"
     fill="black"
     id="rect272" />
  <rect
     shape-rendering="optimizeSpeed"
     x="64"
     y="112"
     width="8"
     height="8"
     fill="black"
     id="rect274" />
  <rect
     shape-rendering="optimizeSpeed"
     x="120"
     y="112"
     width="8"
     height="8"
     fill="black"
     id="rect276" />
  <rect
     shape-rendering="optimizeSpeed"
     x="168"
     y="112"
     width="8"
     height="8"
     fill="black"
     id="rect278" />
  <rect
     shape-rendering="optimizeSpeed"
     x="80"
     y="120"
     width="8"
     height="8"
     fill="black"
     id="rect280" />
  <rect
     shape-rendering="optimizeSpeed"
     x="96"
     y="120"
     width="8"
     height="8"
     fill="black"
     id="rect282" />
  <rect
     shape-rendering="optimizeSpeed"
     x="120"
     y="120"
     width="8"
     height="8"
     fill="black"
     id="rect284" />
  <rect
     shape-rendering="optimizeSpeed"
     x="128"
     y="120"
     width="8"
     height="8"
     fill="black"
     id="rect286" />
  <rect
     shape-rendering="optimizeSpeed"
     x="144"
     y="120"
     width="8"
     height="8"
     fill="black"
     id="rect288" />
  <rect
     shape-rendering="optimizeSpeed"
     x="152"
     y="120"
     width="8"
     height="8"
     fill="black"
     id="rect290" />
  <rect
     shape-rendering="optimizeSpeed"
     x="160"
     y="120"
     width="8"
     height="8"
     fill="black"
     id="rect292" />
  <rect
     shape-rendering="optimizeSpeed"
     x="176"
     y="120"
     width="8"
     height="8"
     fill="black"
     id="rect294" />
  <rect
     shape-rendering="optimizeSpeed"
     x="16"
     y="128"
     width="8"
     height="8"
     fill="black"
     id="rect296" />
  <rect
     shape-rendering="optimizeSpeed"
     x="24"
     y="128"
     width="8"
     height="8"
     fill="black"
     id="rect298" />
  <rect
     shape-rendering="optimizeSpeed"
     x="32"
     y="128"
     width="8"
     height="8"
     fill="black"
     id="rect300" />
  <rect
     shape-rendering="optimizeSpeed"
     x="40"
     y="128"
     width="8"
     height="8"
     fill="black"
     id="rect302" />
  <rect
     shape-rendering="optimizeSpeed"
     x="48"
     y="128"
     width="8"
     height="8"
     fill="black"
     id="rect304" />
  <rect
     shape-rendering="optimizeSpeed"
     x="56"
     y="128"
     width="8"
     height="8"
     fill="black"
     id="rect306" />
  <rect
     shape-rendering="optimizeSpeed"
     x="64"
     y="128"
     width="8"
     height="8"
     fill="black"
     id="rect308" />
  <rect
     shape-rendering="optimizeSpeed"
     x="80"
     y="128"
     width="8"
     height="8"
     fill="black"
     id="rect310" />
  <rect
     shape-rendering="optimizeSpeed"
     x="88"
     y="128"
     width="8"
     height="8"
     fill="black"
     id="rect312" />
  <rect
     shape-rendering="optimizeSpeed"
     x="112"
     y="128"
     width="8"
     height="8"
     fill="black"
     id="rect314" />
  <rect
     shape-rendering="optimizeSpeed"
     x="120"
     y="128"
     width="8"
     height="8"
     fill="black"
     id="rect316" />
  <rect
     shape-rendering="optimizeSpeed"
     x="128"
     y="128"
     width="8"
     height="8"
     fill="black"
     id="rect318" />
  <rect
     shape-rendering="optimizeSpeed"
     x="136"
     y="128"
     width="8"
     height="8"
     fill="black"
     id="rect320" />
  <rect
     shape-rendering="optimizeSpeed"
     x="160"
     y="128"
     width="8"
     height="8"
     fill="black"
     id="rect322" />
  <rect
     shape-rendering="optimizeSpeed"
     x="168"
     y="128"
     width="8"
     height="8"
     fill="black"
     id="rect324" />
  <rect
     shape-rendering="optimizeSpeed"
     x="16"
     y="136"
     width="8"
     height="8"
     fill="black"
     id="rect326" />
  <rect
     shape-rendering="optimizeSpeed"
     x="64"
     y="136"
     width="8"
     height="8"
     fill="black"
     id="rect328" />
  <rect
     shape-rendering="optimizeSpeed"
     x="80"
     y="136"
     width="8"
     height="8"
     fill="black"
     id="rect330" />
  <rect
     shape-rendering="optimizeSpeed"
     x="88"
     y="136"
     width="8"
     height="8"
     fill="black"
     id="rect332" />
  <rect
     shape-rendering="optimizeSpeed"
     x="96"
     y="136"
     width="8"
     height="8"
     fill="black"
     id="rect334" />
  <rect
     shape-rendering="optimizeSpeed"
     x="120"
     y="136"
     width="8"
     height="8"
     fill="black"
     id="rect336" />
  <rect
     shape-rendering="optimizeSpeed"
     x="128"
     y="136"
     width="8"
     height="8"
     fill="black"
     id="rect338" />
  <rect
     shape-rendering="optimizeSpeed"
     x="152"
     y="136"
     width="8"
     height="8"
     fill="black"
     id="rect340" />
  <rect
     shape-rendering="optimizeSpeed"
     x="160"
     y="136"
     width="8"
     height="8"
     fill="black"
     id="rect342" />
  <rect
     shape-rendering="optimizeSpeed"
     x="168"
     y="136"
     width="8"
     height="8"
     fill="black"
     id="rect344" />
  <rect
     shape-rendering="optimizeSpeed"
     x="176"
     y="136"
     width="8"
     height="8"
     fill="black"
     id="rect346" />
  <rect
     shape-rendering="optimizeSpeed"
     x="16"
     y="144"
     width="8"
     height="8"
     fill="black"
     id="rect348" />
  <rect
     shape-rendering="optimizeSpeed"
     x="32"
     y="144"
     width="8"
     height="8"
     fill="black"
     id="rect350" />
  <rect
     shape-rendering="optimizeSpeed"
     x="40"
     y="144"
     width="8"
     height="8"
     fill="black"
     id="rect352" />
  <rect
     shape-rendering="optimizeSpeed"
     x="48"
     y="144"
     width="8"
     height="8"
     fill="black"
     id="rect354" />
  <rect
     shape-rendering="optimizeSpeed"
     x="64"
     y="144"
     width="8"
     height="8"
     fill="black"
     id="rect356" />
  <rect
     shape-rendering="optimizeSpeed"
     x="96"
     y="144"
     width="8"
     height="8"
     fill="black"
     id="rect358" />
  <rect
     shape-rendering="optimizeSpeed"
     x="112"
     y="144"
     width="8"
     height="8"
     fill="black"
     id="rect360" />
  <rect
     shape-rendering="optimizeSpeed"
     x="128"
     y="144"
     width="8"
     height="8"
     fill="black"
     id="rect362" />
  <rect
     shape-rendering="optimizeSpeed"
     x="136"
     y="144"
     width="8"
     height="8"
     fill="black"
     id="rect364" />
  <rect
     shape-rendering="optimizeSpeed"
     x="144"
     y="144"
     width="8"
     height="8"
     fill="black"
     id="rect366" />
  <rect
     shape-rendering="optimizeSpeed"
     x="152"
     y="144"
     width="8"
     height="8"
     fill="black"
     id="rect368" />
  <rect
     shape-rendering="optimizeSpeed"
     x="16"
     y="152"
     width="8"
     height="8"
     fill="black"
     id="rect370" />
  <rect
     shape-rendering="optimizeSpeed"
     x="32"
     y="152"
     width="8"
     height="8"
     fill="black"
     id="rect372" />
  <rect
     shape-rendering="optimizeSpeed"
     x="40"
     y="152"
     width="8"
     height="8"
     fill="black"
     id="rect374" />
  <rect
     shape-rendering="optimizeSpeed"
     x="48"
     y="152"
     width="8"
     height="8"
     fill="black"
     id="rect376" />
  <rect
     shape-rendering="optimizeSpeed"
     x="64"
     y="152"
     width="8"
     height="8"
     fill="black"
     id="rect378" />
  <rect
     shape-rendering="optimizeSpeed"
     x="88"
     y="152"
     width="8"
     height="8"
     fill="black"
     id="rect380" />
  <rect
     shape-rendering="optimizeSpeed"
     x="104"
     y="152"
     width="8"
     height="8"
     fill="black"
     id="rect382" />
  <rect
     shape-rendering="optimizeSpeed"
     x="136"
     y="152"
     width="8"
     height="8"
     fill="black"
     id="rect384" />
  <rect
     shape-rendering="optimizeSpeed"
     x="144"
     y="152"
     width="8"
     height="8"
     fill="black"
     id="rect386" />
  <rect
     shape-rendering="optimizeSpeed"
     x="160"
     y="152"
     width="8"
     height="8"
     fill="black"
     id="rect388" />
  <rect
     shape-rendering="optimizeSpeed"
     x="168"
     y="152"
     width="8"
     height="8"
     fill="black"
     id="rect390" />
  <rect
     shape-rendering="optimizeSpeed"
     x="16"
     y="160"
     width="8"
     height="8"
     fill="black"
     id="rect392" />
  <rect
     shape-rendering="optimizeSpeed"
     x="32"
     y="160"
     width="8"
     height="8"
     fill="black"
     id="rect394" />
  <rect
     shape-rendering="optimizeSpeed"
     x="40"
     y="160"
     width="8"
     height="8"
     fill="black"
     id="rect396" />
  <rect
     shape-rendering="optimizeSpeed"
     x="48"
     y="160"
     width="8"
     height="8"
     fill="black"
     id="rect398" />
  <rect
     shape-rendering="optimizeSpeed"
     x="64"
     y="160"
     width="8"
     height="8"
     fill="black"
     id="rect400" />
  <rect
     shape-rendering="optimizeSpeed"
     x="88"
     y="160"
     width="8"
     height="8"
     fill="black"
     id="rect402" />
  <rect
     shape-rendering="optimizeSpeed"
     x="112"
     y="160"
     width="8"
     height="8"
     fill="black"
     id="rect404" />
  <rect
     shape-rendering="optimizeSpeed"
     x="120"
     y="160"
     width="8"
     height="8"
     fill="black"
     id="rect406" />
  <rect
     shape-rendering="optimizeSpeed"
     x="136"
     y="160"
     width="8"
     height="8"
     fill="black"
     id="rect408" />
  <rect
     shape-rendering="optimizeSpeed"
     x="144"
     y="160"
     width="8"
     height="8"
     fill="black"
     id="rect410" />
  <rect
     shape-rendering="optimizeSpeed"
     x="152"
     y="160"
     width="8"
     height="8"
     fill="black"
     id="rect412" />
  <rect
     shape-rendering="optimizeSpeed"
     x="160"
     y="160"
     width="8"
     height="8"
     fill="black"
     id="rect414" />
  <rect
     shape-rendering="optimizeSpeed"
     x="168"
     y="160"
     width="8"
     height="8"
     fill="black"
     id="rect416" />
  <rect
     shape-rendering="optimizeSpeed"
     x="176"
     y="160"
     width="8"
     height="8"
     fill="black"
     id="rect418" />
  <rect
     shape-rendering="optimizeSpeed"
     x="16"
     y="168"
     width="8"
     height="8"
     fill="black"
     id="rect420" />
  <rect
     shape-rendering="optimizeSpeed"
     x="64"
     y="168"
     width="8"
     height="8"
     fill="black"
     id="rect422" />
  <rect
     shape-rendering="optimizeSpeed"
     x="80"
     y="168"
     width="8"
     height="8"
     fill="black"
     id="rect424" />
  <rect
     shape-rendering="optimizeSpeed"
     x="88"
     y="168"
     width="8"
     height="8"
     fill="black"
     id="rect426" />
  <rect
     shape-rendering="optimizeSpeed"
     x="96"
     y="168"
     width="8"
     height="8"
     fill="black"
     id="rect428" />
  <rect
     shape-rendering="optimizeSpeed"
     x="104"
     y="168"
     width="8"
     height="8"
     fill="black"
     id="rect430" />
  <rect
     shape-rendering="optimizeSpeed"
     x="120"
     y="168"
     width="8"
     height="8"
     fill="black"
     id="rect432" />
  <rect
     shape-rendering="optimizeSpeed"
     x="136"
     y="168"
     width="8"
     height="8"
     fill="black"
     id="rect434" />
  <rect
     shape-rendering="optimizeSpeed"
     x="144"
     y="168"
     width="8"
     height="8"
     fill="black"
     id="rect436" />
  <rect
     shape-rendering="optimizeSpeed"
     x="152"
     y="168"
     width="8"
     height="8"
     fill="black"
     id="rect438" />
  <rect
     shape-rendering="optimizeSpeed"
     x="160"
     y="168"
     width="8"
     height="8"
     fill="black"
     id="rect440" />
  <rect
     shape-rendering="optimizeSpeed"
     x="16"
     y="176"
     width="8"
     height="8"
     fill="black"
     id="rect442" />
  <rect
     shape-rendering="optimizeSpeed"
     x="24"
     y="176"
     width="8"
     height="8"
     fill="black"
     id="rect444" />
  <rect
     shape-rendering="optimizeSpeed"
     x="32"
     y="176"
     width="8"
     height="8"
     fill="black"
     id="rect446" />
  <rect
     shape-rendering="optimizeSpeed"
     x="40"
     y="176"
     width="8"
     height="8"
     fill="black"
     id="rect448" />
  <rect
     shape-rendering="optimizeSpeed"
     x="48"
     y="176"
     width="8"
     height="8"
     fill="black"
     id="rect450" />
  <rect
     shape-rendering="optimizeSpeed"
     x="56"
     y="176"
     width="8"
     height="8"
     fill="black"
     id="rect452" />
  <rect
     shape-rendering="optimizeSpeed"
     x="64"
     y="176"
     width="8"
     height="8"
     fill="black"
     id="rect454" />
  <rect
     shape-rendering="optimizeSpeed"
     x="80"
     y="176"
     width="8"
     height="8"
     fill="black"
     id="rect456" />
  <rect
     shape-rendering="optimizeSpeed"
     x="96"
     y="176"
     width="8"
     height="8"
     fill="black"
     id="rect458" />
  <rect
     shape-rendering="optimizeSpeed"
     x="112"
     y="176"
     width="8"
     height="8"
     fill="black"
     id="rect460" />
  <rect
     shape-rendering="optimizeSpeed"
     x="120"
     y="176"
     width="8"
     height="8"
     fill="black"
     id="rect462" />
  <rect
     shape-rendering="optimizeSpeed"
     x="128"
     y="176"
     width="8"
     height="8"
     fill="black"
     id="rect464" />
  <rect
     shape-rendering="optimizeSpeed"
     x="136"
     y="176"
     width="8"
     height="8"
     fill="black"
     id="rect466" />
  <rect
     shape-rendering="optimizeSpeed"
     x="152"
     y="176"
     width="8"
     height="8"
     fill="black"
     id="rect468" />
  <rect
     shape-rendering="optimizeSpeed"
     x="168"
     y="176"
     width="8"
     height="8"
     fill="black"
     id="rect470" />
</svg>
